<svg xmlns="http://www.w3.org/2000/svg" viewBox="0 0 24 24" width="24" height="24"><path d="M21 3H3v18h18zm-3.95 6.516v.34c0 3.257-2.488 7.03-7.03 7.03-1.372 0-2.657-.429-3.77-1.113h.602c1.113 0 2.226-.43 3.085-1.03-1.117 0-1.972-.77-2.316-1.716.172 0 .344.086.43.086.258 0 .43 0 .687-.086-1.117-.254-1.972-1.199-1.972-2.398.343.172.687.258 1.113.344-.684-.602-1.113-1.286-1.113-2.145 0-.43.086-.855.343-1.2 1.2 1.458 3 2.485 5.055 2.571 0-.172-.086-.344-.086-.597a2.492 2.492 0 012.488-2.489c.688 0 1.371.258 1.801.774.598-.086 1.113-.344 1.543-.602-.172.602-.601 1.027-1.113 1.371.512-.086.941-.172 1.457-.43a5.875 5.875 0 01-1.203 1.29zm0 0" fill="#fff"/></svg>